<?xml version="1.0" encoding="utf-8"?>
<!-- Generator: Adobe Illustrator 27.8.1, SVG Export Plug-In . SVG Version: 6.00 Build 0)  -->
<svg version="1.1" id="Laag_1" xmlns="http://www.w3.org/2000/svg" xmlns:xlink="http://www.w3.org/1999/xlink" x="0px" y="0px"
	 viewBox="0 0 841.89 122.45" style="enable-background:new 0 0 841.89 122.45;" xml:space="preserve">
<style type="text/css">
	.st0{fill:#FFFFFF;}
</style>
<g>
	<path class="st0" d="M55.24,61.42H27.81l-8.82,23.63h15.97v3.28H3.67v-3.28h11.91L47.06,0h2l30.19,85.05h11.59v3.28H49.7v-3.28
		h13.97L55.24,61.42z M29.04,58.13h25.04L41.91,23.56h-0.26L29.04,58.13z"/>
	<path class="st0" d="M106.29,85.05V41.01H95.86v-3.28h10.56c5.41,0,9.53-0.28,12.36-0.84v12.17h0.26c3-8.11,7.45-12.17,13.33-12.17
		c2.58,0,4.65,0.78,6.21,2.35c1.57,1.57,2.35,3.47,2.35,5.7c0,2.06-0.63,3.72-1.9,4.99c-1.27,1.27-2.91,1.9-4.93,1.9
		c-3.69,0-5.54-1.85-5.54-5.54l0.26-2.77c0-0.99-0.45-1.48-1.35-1.48c-1.42,0-3.22,1.91-5.41,5.73c-2.19,3.82-3.28,9.66-3.28,17.51
		v19.76h10.69v3.28H95.86v-3.28H106.29z"/>
	<path class="st0" d="M167.84,36.76v48.28h8.43v3.28h-29.94v-3.28h9.01V41.01h-9.01v-3.28h9.14
		C159.85,37.73,163.97,37.4,167.84,36.76z M154.9,11.97c0-1.89,0.7-3.52,2.09-4.89c1.39-1.37,3.04-2.06,4.92-2.06
		c1.89,0,3.53,0.68,4.93,2.03c1.39,1.35,2.09,2.99,2.09,4.92c0,2.02-0.69,3.69-2.06,5.02c-1.37,1.33-3.03,2-4.96,2
		c-1.93,0-3.58-0.68-4.96-2.03C155.58,15.61,154.9,13.95,154.9,11.97z"/>
	<path class="st0" d="M218.76,37.15v14.42h-2.64c-1.97-8.37-6.78-12.55-14.42-12.55c-3.31,0-6.06,0.87-8.27,2.61
		c-2.21,1.74-3.32,3.72-3.32,5.96c0,1.89,0.78,3.38,2.35,4.47c1.57,1.09,5.27,2.03,11.11,2.8c12.83,1.59,19.25,7.43,19.25,17.51
		c0,5.02-1.66,9.21-4.99,12.55c-3.33,3.35-7.46,5.02-12.39,5.02c-4.85,0-9.55-2-14.1-5.99l-4.51,3.86h-2.25V68.82h2.25
		c3.69,12.15,9.89,18.22,18.61,18.22c3.3,0,6.31-1.05,9.01-3.16c2.7-2.1,4.06-4.57,4.06-7.4c0-2.36-0.8-4.14-2.41-5.34
		c-1.61-1.2-5.96-2.32-13.04-3.35c-12.06-1.76-18.09-7.12-18.09-16.09c0-4.42,1.62-8.12,4.86-11.11c3.24-2.98,7.2-4.47,11.88-4.47
		c4.94,0,9.08,1.63,12.42,4.89c0.86-0.9,1.74-2.19,2.64-3.86H218.76z"/>
	<path class="st0" d="M255.14,23.05v14.68h15.26v3.28h-15.26v31.87c0,4.68,0.31,7.88,0.93,9.59c0.62,1.72,2.29,2.58,4.99,2.58
		c2.06,0,4.04-0.69,5.96-2.06c1.91-1.37,3.36-3.5,4.35-6.37h2.77c-1.97,8.33-7.96,12.49-17.96,12.49c-4.21,0-7.3-0.76-9.27-2.29
		c-1.97-1.52-3.19-3.4-3.64-5.63c-0.45-2.23-0.68-5.26-0.68-9.08v-31.1h-11.46v-3.28h11.46V24.14
		C246.83,24.14,251.02,23.78,255.14,23.05z"/>
	<path class="st0" d="M283.2,62.9c0-7.42,2.55-13.75,7.66-18.96c5.11-5.21,11.44-7.82,18.99-7.82c7.38,0,13.64,2.5,18.77,7.5
		c5.13,5,7.69,11.26,7.69,18.77c0,7.68-2.66,14.2-7.98,19.54c-5.32,5.34-11.61,8.01-18.86,8.01c-7.12,0-13.28-2.61-18.48-7.82
		C285.8,76.9,283.2,70.5,283.2,62.9z M321.83,62.9c0-7.9-0.27-13.11-0.8-15.64c-0.54-2.53-1.74-4.54-3.61-6.02
		c-1.87-1.48-4.43-2.22-7.69-2.22c-3.09,0-5.63,0.76-7.63,2.29c-2,1.52-3.23,3.55-3.7,6.08c-0.47,2.53-0.71,7.75-0.71,15.64
		c0,7.94,0.29,13.2,0.87,15.77c0.58,2.58,1.85,4.59,3.8,6.05c1.95,1.46,4.41,2.19,7.37,2.19c3,0,5.5-0.74,7.5-2.22
		c2-1.48,3.26-3.54,3.8-6.18C321.56,76,321.83,70.75,321.83,62.9z"/>
	<path class="st0" d="M378.16,5.28V42.3h7.79c2.75,0,5.07-0.27,6.98-0.8c1.91-0.54,3.63-1.98,5.15-4.35
		c1.52-2.36,2.39-6.05,2.61-11.07h3.35v36.57h-3.35c-0.34-6.95-1.68-11.53-4.02-13.74c-2.34-2.21-5.91-3.32-10.72-3.32h-7.79v39.46
		h17.58c9.96,0,16.86-2.09,20.7-6.28c3.84-4.18,6.13-10.63,6.86-19.35h3.28l-0.84,28.91h-76.55v-3.28h13.71V5.28h-13.71V2h73.39
		l1.48,23.05h-3.28c-1.12-7-3.41-12.04-6.89-15.13s-9.27-4.64-17.38-4.64H378.16z"/>
	<path class="st0" d="M445.96,85.05V5.28h-9.21V2h8.82c5.92,0,10.24-0.32,12.94-0.97v84.02h9.08v3.28h-30.84v-3.28H445.96z"/>
	<path class="st0" d="M521.79,59.16h-32.58c-0.3,12.71,0.41,20.53,2.12,23.47c1.72,2.94,4.79,4.41,9.21,4.41
		c9.1,0,15.26-5.28,18.48-15.84h2.77c-1.42,6.4-4.1,11.12-8.05,14.16c-3.95,3.05-8.35,4.57-13.2,4.57c-6.91,0-12.92-2.56-18.03-7.69
		c-5.11-5.13-7.66-11.58-7.66-19.35c0-7.55,2.5-13.91,7.5-19.06c5-5.15,10.8-7.73,17.42-7.73c5.75,0,10.78,2.04,15.1,6.12
		C519.19,46.31,521.49,51.95,521.79,59.16z M489.22,56.27h18.73c0.34-3.05,0.52-5.36,0.52-6.95c0-6.87-3.11-10.3-9.33-10.3
		c-3.09,0-5.52,0.83-7.28,2.48c-1.76,1.65-2.64,3.9-2.64,6.73V56.27z"/>
	<path class="st0" d="M577.03,44.42c2.53,3.56,3.8,7.08,3.8,10.56c0,5.88-2.37,10.33-7.11,13.36c-4.74,3.03-8.62,4.54-11.62,4.54
		l-3.22,0.19c-1.5,0-3.54-0.12-6.12-0.35c-2.58-0.24-3.95-0.35-4.12-0.35c-1.67,0-3.63,0.76-5.86,2.29
		c-2.23,1.52-3.35,3.14-3.35,4.86c0,1.5,0.58,2.64,1.74,3.41c1.16,0.77,4.06,1.16,8.69,1.16l22.02-0.9c4.59,0,8.33,1.46,11.2,4.38
		c2.88,2.92,4.31,7.08,4.31,12.49c0,6.31-2.6,11.62-7.79,15.93c-5.19,4.31-12.38,6.47-21.57,6.47c-7.12,0-12.78-1.43-16.96-4.28
		c-4.18-2.85-6.28-6.21-6.28-10.08c0-2.36,0.67-4.35,2-5.96s4.31-3.75,8.95-6.41c-7.12-1.72-10.69-5.64-10.69-11.78
		c0-8.24,4.44-12.9,13.33-13.97v-0.26c-6.87-3.26-10.3-8.18-10.3-14.74c0-5.32,2.12-9.8,6.37-13.42c4.25-3.63,9.25-5.44,15-5.44
		c6.27,0,11.5,2.15,15.71,6.44c3.09-4.29,6.52-6.44,10.3-6.44c1.46,0,2.73,0.49,3.8,1.48c1.07,0.99,1.61,2.34,1.61,4.06
		c0,1.5-0.47,2.69-1.42,3.57c-0.95,0.88-1.97,1.32-3.09,1.32c-1.63,0-2.84-0.75-3.64-2.25c-0.79-1.5-1.47-2.25-2.03-2.25
		C579.63,42.04,578.4,42.83,577.03,44.42z M549.48,95.73c-4.08,2.58-6.12,6.39-6.12,11.46c0,7.98,5.45,11.97,16.35,11.97
		c6.95,0,12.69-1.63,17.22-4.89c4.53-3.26,6.79-7.08,6.79-11.46c0-2.62-1.14-4.64-3.41-6.05c-2.28-1.42-4.83-2.12-7.66-2.12
		c-1.12,0-3.63,0.13-7.53,0.39c-3.91,0.26-6.8,0.41-8.69,0.45L549.48,95.73z M559.2,39.4c-4.16,0-6.74,1.05-7.73,3.15
		c-0.99,2.1-1.48,5.62-1.48,10.56c0,7.12,0.46,11.72,1.38,13.78c0.92,2.06,3.57,3.09,7.95,3.09c4.46,0,7.15-1.05,8.05-3.16
		c0.9-2.1,1.35-7.23,1.35-15.39c0-5.06-0.8-8.34-2.41-9.82C564.7,40.14,562.33,39.4,559.2,39.4z"/>
	<path class="st0" d="M632.27,59.42v-6.57c0-5.36-0.44-8.88-1.32-10.56c-0.88-1.67-3.25-2.51-7.11-2.51
		c-6.95,0-10.43,1.33-10.43,3.99c0,0.77,0.29,1.62,0.87,2.54c0.58,0.92,0.87,2.01,0.87,3.25c0,1.76-0.58,3.1-1.74,4.02
		c-1.16,0.92-2.47,1.38-3.93,1.38c-1.89,0-3.35-0.59-4.38-1.77c-1.03-1.18-1.54-2.56-1.54-4.15c0-3.43,2.01-6.32,6.02-8.66
		c4.01-2.34,9.6-3.51,16.77-3.51c5.75,0,9.96,0.67,12.62,2c2.66,1.33,4.3,2.98,4.93,4.96c0.62,1.98,0.93,4.76,0.93,8.37V75.9
		c0,3.48,0.25,5.64,0.74,6.5c0.49,0.86,1.25,1.29,2.29,1.29c1.54,0,3.05-1.05,4.51-3.15h1.54c-1.12,6.27-4.76,9.4-10.94,9.4
		c-5.97,0-9.53-3.43-10.69-10.3c-5.02,6.87-10.9,10.3-17.64,10.3c-4.46,0-8.03-1.21-10.69-3.64c-2.66-2.42-3.99-5.4-3.99-8.92
		C599.95,66.44,610.72,60.45,632.27,59.42z M632.27,69.34v-6.95c-7.94,0.3-13.18,1.49-15.71,3.57c-2.53,2.08-3.8,5.1-3.8,9.05
		c0,2.88,0.76,5.11,2.29,6.7s3.27,2.38,5.25,2.38c2.53,0,4.82-0.85,6.86-2.54c2.04-1.7,3.4-3.4,4.09-5.12
		C631.92,74.7,632.27,72.34,632.27,69.34z"/>
	<path class="st0" d="M670.96,85.05V41.01h-9.14v-3.28h5.86c5.79,0,11.05-0.32,15.77-0.97v12.55h0.26
		c4.42-8.8,10.66-13.2,18.73-13.2c3.78,0,6.88,0.97,9.3,2.9c2.42,1.93,4.08,4.21,4.96,6.82c0.88,2.62,1.32,6.67,1.32,12.17v27.04
		h10.04v3.28h-31.16v-3.28h8.56V52.86c0-4.94-0.31-8.35-0.93-10.24c-0.62-1.89-2.24-2.83-4.86-2.83c-4.16,0-7.91,2.14-11.23,6.41
		c-3.33,4.27-4.99,10.01-4.99,17.22v21.63h8.43v3.28h-30.07v-3.28H670.96z"/>
	<path class="st0" d="M779.31,70.82h2.77c-1.29,6.22-3.82,10.97-7.6,14.23c-3.78,3.26-8.33,4.89-13.65,4.89
		c-7.25,0-13.39-2.69-18.41-8.08c-5.02-5.39-7.53-11.58-7.53-18.57c0-7.21,2.58-13.54,7.73-18.99c5.15-5.45,11.55-8.18,19.19-8.18
		c5.45,0,9.89,1.38,13.33,4.15c3.43,2.77,5.15,5.87,5.15,9.3c0,1.72-0.59,3.26-1.77,4.64c-1.18,1.37-2.71,2.06-4.6,2.06
		c-1.85,0-3.38-0.58-4.6-1.74c-1.22-1.16-1.83-2.68-1.83-4.57c0-1.33,0.53-2.64,1.58-3.93s1.58-2.17,1.58-2.64
		c0-1.16-0.79-2.18-2.38-3.06c-1.59-0.88-3.65-1.32-6.18-1.32c-4.46,0-7.78,1.2-9.95,3.6c-2.17,2.4-3.25,7.49-3.25,15.26
		c0,7.77,0.2,13.51,0.61,17.22c0.41,3.71,1.49,6.63,3.25,8.75c1.76,2.12,4.66,3.19,8.69,3.19
		C769.91,87.04,775.88,81.63,779.31,70.82z"/>
	<path class="st0" d="M837.58,59.16H805c-0.3,12.71,0.41,20.53,2.12,23.47c1.72,2.94,4.79,4.41,9.21,4.41
		c9.1,0,15.26-5.28,18.48-15.84h2.77c-1.42,6.4-4.1,11.12-8.05,14.16c-3.95,3.05-8.35,4.57-13.2,4.57c-6.91,0-12.92-2.56-18.03-7.69
		c-5.11-5.13-7.66-11.58-7.66-19.35c0-7.55,2.5-13.91,7.5-19.06c5-5.15,10.8-7.73,17.42-7.73c5.75,0,10.78,2.04,15.1,6.12
		C834.97,46.31,837.27,51.95,837.58,59.16z M805,56.27h18.73c0.34-3.05,0.52-5.36,0.52-6.95c0-6.87-3.11-10.3-9.33-10.3
		c-3.09,0-5.52,0.83-7.28,2.48c-1.76,1.65-2.64,3.9-2.64,6.73V56.27z"/>
</g>
</svg>
